REM MD5 044045aad0e20cb68b662e9bb5a1fff3
FILE "Famitsu Wave 7gatsu-gou Vol. 12 (Japan).bin" BINARY
  TRACK 01 MODE2/2352
    INDEX 01 00:00:00
  TRACK 02 AUDIO
    INDEX 00 60:27:09
    INDEX 01 60:29:09
  TRACK 03 AUDIO
    INDEX 00 61:36:43
    INDEX 01 61:38:43
REM LEADOUT 64:46:43
